<?xml version="1.0" encoding="UTF-8"?>
<svg width="32px" height="32px" viewBox="0 0 32 32" version="1.1" xmlns="http://www.w3.org/2000/svg" xmlns:xlink="http://www.w3.org/1999/xlink">
    <title>Path</title>
    <defs>
        <linearGradient x1="100%" y1="50%" x2="0%" y2="50%" id="linearGradient-1">
            <stop stop-color="#3E0087" offset="0%"></stop>
            <stop stop-color="#003087" offset="100%"></stop>
        </linearGradient>
    </defs>
    <g id="UI-Design" stroke="none" stroke-width="1" fill="none" fill-rule="evenodd">
        <g id="Landing-[UXD]" transform="translate(-887.000000, -1244.000000)" fill="url(#linearGradient-1)">
            <g id="About" transform="translate(0.000000, 1024.000000)">
                <path d="M915,220 C917.209139,220 919,221.790861 919,224 L919,224 L919,248 C919,250.209139 917.209139,252 915,252 L915,252 L891,252 C888.790861,252 887,250.209139 887,248 L887,248 L887,224 C887,221.790861 888.790861,220 891,220 L891,220 Z M912.769244,228.888889 L905.677742,228.888489 C904.479129,228.871813 904.479129,230.682933 905.677742,230.666267 L905.677742,230.666267 L910.632053,230.666267 L903.000053,238.298267 L900.072266,235.371867 C899.725031,235.024645 899.162528,235.024645 898.815306,235.371867 L898.815306,235.371867 L892.593084,241.594089 C891.754222,242.4316 893.011146,243.689947 893.850044,242.851049 L893.850044,242.851049 L899.444355,237.256738 L902.370755,240.184524 C902.717991,240.531746 903.280494,240.531746 903.627715,240.184524 L903.627715,240.184524 L911.888693,231.923547 L911.89286,236.883191 C911.874798,238.083191 913.688693,238.083191 913.670638,236.883191 L913.670638,236.883191 L913.670638,229.793058 C913.669248,229.79028 913.669248,229.786113 913.669248,229.781947 L913.669248,229.781947 L913.66786,229.745836 C913.666471,229.727781 913.665082,229.708335 913.663693,229.688891 C913.662304,229.67778 913.660915,229.666668 913.659526,229.655557 C913.658137,229.637501 913.65536,229.620834 913.651193,229.602779 L913.651193,229.602779 L913.645637,229.57639 C913.640082,229.552781 913.633137,229.529169 913.626193,229.505558 L913.626193,229.505558 C913.616471,229.479171 913.606748,229.45417 913.597026,229.430559 C913.591471,229.420837 913.587304,229.412503 913.583137,229.402781 C913.574804,229.386114 913.566471,229.369447 913.558137,229.35417 C913.552582,229.343058 913.545637,229.330559 913.538693,229.319447 C913.53036,229.304171 913.520638,229.290282 913.510915,229.276393 C913.503971,229.26806 913.498415,229.258337 913.491471,229.250004 C913.480359,229.236114 913.469248,229.222225 913.458137,229.208337 C913.449804,229.198614 913.441471,229.190281 913.433137,229.180559 C913.422026,229.166669 913.410917,229.155558 913.398415,229.143058 C913.385914,229.130558 913.373413,229.119447 913.359525,229.108336 L913.359525,229.108336 L913.337302,229.088891 C913.320636,229.075001 913.303969,229.062501 913.285914,229.050001 C913.278969,229.045834 913.273414,229.040278 913.266469,229.036112 C913.245634,229.022222 913.224802,229.009722 913.20258,228.998611 L913.20258,228.998611 L913.195635,228.994444 C913.173412,228.981945 913.152578,228.972222 913.131745,228.963889 C913.122022,228.959722 913.113689,228.955556 913.105356,228.952778 C913.087301,228.945833 913.067854,228.938889 913.04841,228.933333 C913.042854,228.930556 913.03591,228.927778 913.026188,228.925 C912.999798,228.918055 912.973409,228.911111 912.942853,228.905556 C912.917854,228.9 912.892855,228.897222 912.866466,228.894444 C912.862299,228.894444 912.859521,228.893056 912.855355,228.893056 C912.822023,228.890278 912.795633,228.888889 912.769244,228.888889 L912.769244,228.888889 Z" id="Stock-Linkout/Hover"></path>
            </g>
        </g>
    </g>
</svg>