<?xml version="1.0" encoding="UTF-8"?>
<svg width="256px" height="36px" viewBox="0 0 256 36" version="1.1" xmlns="http://www.w3.org/2000/svg" xmlns:xlink="http://www.w3.org/1999/xlink">
    <title>Combined Shape</title>
    <g id="Symbols" stroke="none" stroke-width="1" fill="none" fill-rule="evenodd">
        <g id="logo" fill="#FFFFFF">
            <path d="M20.4811222,0 C31.983475,0 40.8484383,7.8476682 40.8484383,17.9635023 C40.8484383,28.0687189 31.9874449,36 20.4811222,36 C8.97612275,36 0,28.0713733 0,17.9635023 C0,7.8476682 8.97744607,0 20.4811222,0 Z M20.5806363,33.36553 C20.4443337,33.4650691 19.6490146,33.94153 18.5255105,33.94153 C17.4099463,33.94153 16.6635903,33.5261198 16.4359781,33.3788018 L16.3539319,33.4318894 C15.7758796,33.762055 15.0886591,33.9343558 14.4252996,33.9413106 C16.3143696,34.4664923 18.3464635,34.7511152 20.4811222,34.7511152 C22.6359579,34.7511152 24.682499,34.4607685 26.5800609,33.9237915 C25.5934578,33.8715091 24.9354319,33.5050209 24.7266178,33.3695115 L24.6445716,33.4212719 C24.0556914,33.7610323 23.3503584,33.9295853 22.6741386,33.9295853 C21.5466646,33.9295853 20.7976618,33.5075392 20.5806363,33.36553 Z M22.4262796,31.5462194 C22.2926236,31.6457585 21.5118611,32.1076203 20.4082069,32.1116018 C19.317786,32.1116018 18.5873098,31.7068092 18.364991,31.5608184 L18.2842681,31.6125788 C17.7059745,31.9417217 17.0151981,32.1116018 16.3508883,32.1116018 C15.2445874,32.1116018 14.5127879,31.6922101 14.2984091,31.5555097 C14.1634298,31.6484129 13.4011938,32.0970028 12.3015096,32.0970028 C11.2110886,32.0970028 10.4806125,31.6922101 10.2569703,31.5502009 L10.1855107,31.5939982 C9.98205276,31.7117374 9.77462066,31.804824 9.56233079,31.877492 C10.3847343,32.363477 11.2570513,32.7971528 12.1725947,33.1702642 L12.1748672,33.1677788 L12.2026408,33.1824808 C12.4685016,33.290331 12.7379947,33.3930792 13.01098,33.4905805 C13.4580398,33.6118363 13.92709,33.6654747 14.3834989,33.6654747 C15.012079,33.6654747 15.6697722,33.5075392 16.2176293,33.196977 L16.3195254,33.1359263 C16.3976017,33.0828387 16.4293615,33.2235207 16.4478881,33.0828387 L16.528611,33.1107097 C16.528611,33.1107097 16.7138767,33.2487373 17.0513249,33.3827834 C17.3927431,33.5261198 17.8942838,33.6654747 18.5255105,33.6654747 C19.1210073,33.6654747 19.6185781,33.5261198 19.9599963,33.3827834 C20.2974445,33.2487373 20.4906501,33.1107097 20.5978396,33.0722212 L20.6798858,33.1014194 C20.6798858,33.1014194 20.8651515,33.2381198 21.1999531,33.3748203 C21.5426946,33.5155023 22.0455586,33.6575115 22.6741386,33.6575115 C23.3013953,33.6575115 23.9604119,33.4969217 24.508269,33.1810507 L24.6101651,33.1213272 C24.686918,33.0682396 24.7213245,33.2129032 24.7372044,33.0722212 L24.820574,33.1014194 C24.820574,33.1014194 25.0045164,33.2381198 25.3393179,33.3748203 C25.6833828,33.5155023 26.1849235,33.6575115 26.8135035,33.6548571 C27.1186755,33.6548571 27.42882,33.6244816 27.7330079,33.5623252 C29.0031915,33.1202004 30.1976292,32.5655892 31.3031724,31.9116174 C30.910641,31.783513 30.6459417,31.6288391 30.5316536,31.5555097 C30.399321,31.6484129 29.6357617,32.0970028 28.5387241,32.0970028 C27.4456565,32.0970028 26.7151804,31.6922101 26.4902149,31.5502009 L26.4108153,31.5966525 C25.8325217,31.9311041 25.1417453,32.0970028 24.4787588,32.0970028 C23.3764279,32.0970028 22.6406585,31.6829198 22.4262796,31.5462194 Z M24.450175,29.7085935 C24.3191656,29.8094599 23.5529597,30.2660129 22.4731254,30.2660129 C21.405201,30.2660129 20.6892814,29.8625475 20.4696092,29.725847 L20.391533,29.7736258 C19.823826,30.1014415 19.1462829,30.2660129 18.4965296,30.2660129 C17.4140487,30.2660129 16.6928358,29.8545843 16.4824269,29.7231926 C16.3487709,29.8134415 15.6024149,30.2474323 14.5265505,30.2474323 C13.4559795,30.2474323 12.7413833,29.8545843 12.5217111,29.7125751 L12.4423115,29.7590267 C11.8759278,30.0894968 11.1983847,30.2474323 10.5459848,30.2474323 C9.46879715,30.252741 8.75155426,29.8506028 8.53585206,29.7125751 C8.43621281,29.7901804 7.93496832,30.0866309 7.18242107,30.2015418 C7.82776059,30.7368449 8.51759358,31.2327964 9.24773173,31.6850589 C9.52308456,31.6139642 9.78917739,31.5072816 10.0478848,31.3564313 L10.1418409,31.3006894 C10.2199172,31.248929 10.251677,31.3909382 10.2662336,31.2529106 L10.3496032,31.2807816 C10.3496032,31.2807816 10.5295756,31.4135005 10.8604072,31.5462194 C11.1978554,31.6882286 11.6874861,31.824929 12.3015096,31.824929 C12.8877432,31.824929 13.3734039,31.6882286 13.7108522,31.5462194 C14.0390371,31.4135005 14.2282728,31.2807816 14.3169356,31.2635281 L14.3989819,31.2927263 C14.3989819,31.2927263 14.5789543,31.4280995 14.9097858,31.5608184 C15.2445874,31.6961917 15.7355415,31.8342194 16.3508883,31.8342194 C16.966235,31.8342194 17.6093716,31.6789382 18.1479655,31.3710304 L18.2472149,31.3086525 C18.3266145,31.2568922 18.3583744,31.3989014 18.3755776,31.2635281 L18.4576238,31.2927263 C18.4576238,31.2927263 18.6362729,31.424118 18.9671045,31.5608184 C19.3032294,31.6961917 19.7941835,31.8342194 20.4082069,31.8342194 C20.9970871,31.8342194 21.4814246,31.6961917 21.8175495,31.5608184 C22.1483811,31.424118 22.3362934,31.2900719 22.4421595,31.2529106 L22.5268524,31.2807816 C22.5268524,31.2807816 22.7068248,31.4135005 23.0350097,31.5462194 C23.372458,31.6882286 23.863412,31.824929 24.4787588,31.824929 C25.0941056,31.824929 25.7372422,31.6696479 26.2745127,31.3630673 L26.3737622,31.3006894 C26.4531617,31.248929 26.4862449,31.3909382 26.5034481,31.2529106 L26.5854944,31.2807816 C26.5854944,31.2807816 26.7654668,31.4135005 27.0962984,31.5462194 C27.4297766,31.6882286 27.9233773,31.824929 28.5387241,31.824929 C29.126281,31.824929 29.6092951,31.6882286 29.9440967,31.5462194 C30.273605,31.4135005 30.464164,31.2807816 30.5528268,31.2635281 L30.6361964,31.2927263 C30.6361964,31.2927263 30.8148454,31.4280995 31.145677,31.5608184 C31.2803673,31.6152789 31.4401158,31.6701691 31.6231132,31.716329 C32.3664301,31.2581016 33.066094,30.7537279 33.7195775,30.2084468 C33.0218625,30.0900203 32.5589091,29.8240707 32.3993964,29.7231926 C32.2657405,29.8134415 31.5193844,30.2474323 30.4435201,30.2474323 C29.372949,30.2474323 28.6583528,29.8545843 28.4373573,29.7125751 L28.359281,29.7590267 C27.791574,30.0894968 27.1153543,30.2474323 26.4629544,30.2474323 C25.3817967,30.252741 24.6632305,29.8506028 24.450175,29.7085935 Z M20.4811222,1.25021198 C9.50677662,1.25021198 1.24922009,8.6877788 1.24922009,17.9635023 C1.24922009,22.664704 3.3738326,26.9150318 6.89890253,29.9627735 C7.33108532,29.9245297 7.69086621,29.8144096 7.95623512,29.7085935 C8.27912675,29.5745475 8.46174579,29.4418286 8.55305531,29.4192664 L8.63245489,29.4418286 C8.63245489,29.4418286 8.73368936,29.5164829 8.91996822,29.6103608 L9.22212912,26.3640774 L11.8952484,26.3640774 L12.1952944,29.5846116 C12.2326781,29.5651607 12.2695978,29.5449945 12.3060089,29.5241143 L12.4026117,29.4630636 C12.4820113,29.4139576 12.5150944,29.557294 12.529651,29.4139576 L12.6130206,29.4418286 C12.6130206,29.4418286 12.7195269,29.5215429 12.9171397,29.6198106 L12.6316795,27.3408885 L28.3263302,27.3408885 L28.0407162,29.6206933 C28.1026973,29.5904084 28.163516,29.5582135 28.2229784,29.5241143 L28.3195812,29.4630636 C28.3989808,29.4139576 28.4307407,29.557294 28.4466206,29.4139576 L28.5299901,29.4418286 C28.5299901,29.4418286 28.6023036,29.4963583 28.7396117,29.5708143 L29.0418528,26.361423 L31.714972,26.361423 L32.0204021,29.6189804 C32.2232583,29.520555 32.3477469,29.4391193 32.4152764,29.4298839 L32.4999692,29.4564276 L32.5325148,29.478824 C32.597151,29.5216258 32.7566946,29.6196719 32.9988633,29.7192111 C33.2493202,29.8225222 33.5899512,29.9227415 34.0048754,29.9644187 C37.5045241,26.9168776 39.6031882,22.6663371 39.6031882,17.9635023 C39.6031882,8.68379724 31.4475278,1.25021198 20.4811222,1.25021198 Z M23.3461238,16.176177 L24.3875816,26.8122691 L16.5561362,26.8122691 L17.6267072,16.176177 L23.3461238,16.176177 Z M12.2721317,25.205176 L11.9135103,25.8329364 L9.24039102,25.8329364 L8.8830929,25.205176 L12.2721317,25.205176 Z M32.0729318,25.1978765 L31.7143104,25.8229825 L29.0411911,25.8229825 L28.6825697,25.1978765 L32.0729318,25.1978765 Z M16.5446232,11.4779281 L16.7153323,11.6942599 L16.6081429,11.7765456 L3.14859042,22.582518 L2.976558,22.3701677 C7.49836419,18.740306 12.0254637,15.1064627 16.5446232,11.4779281 Z M24.4732008,11.4776627 C28.9923604,15.1075244 33.5194599,18.7400406 38.0386194,22.3699023 L37.8679103,22.5822525 L37.7580742,22.4973124 L24.2998451,11.6939945 L24.4732008,11.4776627 Z M23.7788515,14.9876793 L23.3342138,15.639329 L17.6267072,15.639329 L17.1780996,14.9876793 L23.7788515,14.9876793 Z M22.4409685,13.7381309 L22.7982666,14.4508313 L18.1600077,14.4508313 L18.5186292,13.7381309 L22.4409685,13.7381309 Z M22.4409685,9.55974194 L22.4409685,13.2068571 L18.5186292,13.2068571 L18.5186292,9.55974194 L22.4409685,9.55974194 Z M16.6518127,9.4274212 L16.6862192,9.70082212 L16.5499165,9.71940276 L4.37663729,11.2974304 L4.34090748,11.0306654 C8.44189589,10.4958083 12.5521476,9.95829677 16.6518127,9.4274212 Z M24.3290906,9.40684977 C28.4314023,9.9430341 32.5390074,10.4739097 36.6413191,11.0074396 L36.6055893,11.2808406 L36.4679634,11.2609327 L24.2933608,9.67759631 L24.3290906,9.40684977 Z M22.7982666,8.4748977 L22.4409685,9.02568111 L18.5186292,9.02568111 L18.1600077,8.4748977 L22.7982666,8.4748977 Z M21.3730442,6.37847005 L21.3730442,7.93658986 L19.5852302,7.93658986 L19.5852302,6.37847005 L21.3730442,6.37847005 Z M29.1453369,4.07393917 L29.2961961,4.30487005 L29.1837134,4.37919263 L24.4329717,7.56311889 L24.2794659,7.3348424 C25.9031873,6.24522028 27.5229388,5.1622341 29.1453369,4.07393917 Z M11.8809565,4.07380645 C13.5060012,5.16342857 15.1231061,6.24508756 16.7468275,7.33470968 L16.5933216,7.56298618 L16.4808389,7.48468203 L11.7287739,4.30473733 L11.8809565,4.07380645 Z M20.4805929,4.26571797 L21.7284896,5.83976406 L19.2313728,5.83976406 L20.4805929,4.26571797 Z M253.633892,23.2167816 L253.891941,23.2167816 C254.192336,23.2167816 254.442445,23.1132608 254.442445,22.8252608 C254.442445,22.6314912 254.298202,22.4363945 253.891941,22.4363945 C253.778135,22.4363945 253.697412,22.4483392 253.633892,22.4536479 L253.633892,23.2167816 L253.633892,23.2167816 Z M253.633892,24.4683207 L253.275271,24.4683207 L253.275271,22.2160811 C253.46583,22.1829014 253.644479,22.1629935 253.915761,22.1629935 C254.255856,22.1629935 254.476851,22.2359889 254.609184,22.3302194 C254.74681,22.4284313 254.81827,22.5797309 254.81827,22.7907539 C254.81827,23.0946802 254.625064,23.2711963 254.380249,23.3415373 L254.380249,23.360118 C254.574778,23.4039152 254.712403,23.5737954 254.756073,23.9109014 C254.81033,24.2639336 254.863263,24.3993069 254.901639,24.4683207 L254.520521,24.4683207 C254.466265,24.3993069 254.414655,24.1922654 254.370985,23.8909935 C254.319376,23.6056479 254.17381,23.4928369 253.885324,23.4928369 L253.633892,23.4928369 L253.633892,24.4683207 Z M254.012364,21.5843392 C253.124412,21.5843392 252.400552,22.3474728 252.400552,23.289777 C252.400552,24.2572977 253.124412,25.0084866 254.020304,25.0084866 C254.917519,25.0204313 255.633439,24.2572977 255.633439,23.2950857 C255.633439,22.3474728 254.917519,21.5843392 254.020304,21.5843392 L254.012364,21.5843392 Z M254.020304,21.267141 C255.122635,21.267141 256,22.1709567 256,23.289777 C256,24.4338138 255.122635,25.3190488 254.012364,25.3190488 C252.91268,25.3190488 252.015464,24.4338138 252.015464,23.289777 C252.015464,22.1709567 252.91268,21.267141 254.012364,21.267141 L254.020304,21.267141 Z M244.942285,18.9511963 C245.033594,18.9511963 245.033594,18.8914728 245.016391,18.8171502 L243.228577,13.7167631 C243.131974,13.4380535 243.038018,13.4380535 242.948032,13.7167631 L241.285934,18.8171502 C241.248881,18.9127078 241.285934,18.9511963 241.345484,18.9511963 L244.942285,18.9511963 L244.942285,18.9511963 Z M242.982439,11.3941825 C243.207404,10.7690765 243.284157,10.6549382 243.393993,10.6549382 C243.509122,10.6549382 243.585875,10.7558046 243.810841,11.3437493 C244.095356,12.0591041 247.051667,19.855012 248.200314,22.7243945 C248.880504,24.4059429 249.424391,24.7045604 249.824036,24.8200258 C250.105904,24.9116018 250.38645,24.9341641 250.575685,24.9341641 C250.686845,24.9341641 250.763598,24.9514175 250.763598,25.0443207 C250.763598,25.1597862 250.592888,25.1982747 250.38645,25.1982747 C250.105904,25.1982747 248.728322,25.1982747 247.428815,25.1597862 C247.070194,25.1385512 246.863755,25.1385512 246.863755,25.0244129 C246.863755,24.9514175 246.919334,24.9116018 246.997411,24.89833 C247.107247,24.8571871 247.222376,24.6873069 247.107247,24.386035 L245.356486,19.7448553 C245.31811,19.6625696 245.279733,19.6320442 245.1871,19.6320442 L241.135075,19.6320442 C241.041119,19.6320442 240.986862,19.6838046 240.948486,19.7767078 L239.815719,23.121224 C239.647656,23.5950304 239.5537,24.0462747 239.5537,24.386035 C239.5537,24.7656111 239.948051,24.9341641 240.268296,24.9341641 L240.458855,24.9341641 C240.589864,24.9341641 240.645444,24.9713253 240.645444,25.0443207 C240.645444,25.1597862 240.535608,25.1982747 240.363576,25.1982747 C239.912321,25.1982747 239.101122,25.1385512 238.89336,25.1385512 C238.686921,25.1385512 237.649433,25.1982747 236.764128,25.1982747 C236.520636,25.1982747 236.40683,25.1597862 236.40683,25.0443207 C236.40683,24.9713253 236.482259,24.9341641 236.577539,24.9341641 C236.709872,24.9341641 236.973213,24.9116018 237.120103,24.89833 C237.989528,24.7855189 238.366676,24.0675097 238.704124,23.121224 L242.982439,11.3941825 Z M226.027981,19.7222931 L226.027981,16.3963576 C226.027981,13.4566341 226.027981,12.9231041 226.067681,12.3192332 C226.106057,11.6609475 226.256917,11.3437493 226.762427,11.2468645 C226.992686,11.2057217 227.101199,11.1897954 227.236178,11.1897954 C227.310284,11.1897954 227.384391,11.1486525 227.384391,11.07433 C227.384391,10.9615189 227.293081,10.9243576 227.085319,10.9243576 C226.518935,10.9243576 225.331911,10.9827539 225.237955,10.9827539 C225.142676,10.9827539 223.955652,10.9243576 223.333689,10.9243576 C223.12725,10.9243576 223.033294,10.9615189 223.033294,11.07433 C223.033294,11.1486525 223.1074,11.1897954 223.185476,11.1897954 C223.315162,11.1897954 223.561301,11.2057217 223.76774,11.2614636 C224.184587,11.3610028 224.369853,11.6795281 224.40823,12.3192332 C224.446606,12.9231041 224.446606,13.4566341 224.446606,16.3963576 L224.446606,19.7222931 C224.446606,21.5325788 224.446606,23.023012 224.350003,23.8206525 C224.275897,24.3648 224.184587,24.7855189 223.806116,24.8571871 C223.63673,24.89833 223.410442,24.9341641 223.243702,24.9341641 C223.12725,24.9341641 223.090197,24.9912332 223.090197,25.0443207 C223.090197,25.1597862 223.185476,25.1982747 223.390592,25.1982747 C223.955652,25.1982747 225.142676,25.1385512 225.237955,25.1385512 C225.331911,25.1385512 226.518935,25.1982747 227.556423,25.1982747 C227.761539,25.1982747 227.858141,25.1385512 227.858141,25.0443207 C227.858141,24.9912332 227.821088,24.9341641 227.707282,24.9341641 C227.536573,24.9341641 227.122372,24.89833 226.856383,24.8571871 C226.29,24.7855189 226.180164,24.3648 226.123261,23.8206525 C226.027981,23.023012 226.027981,21.5325788 226.027981,19.7222931 L226.027981,19.7222931 Z M204.214269,18.0420719 C204.214269,18.1376295 204.253969,18.2119521 204.347925,18.2663668 C204.631117,18.4402286 205.496573,18.5742747 206.326298,18.5742747 C206.776229,18.5742747 207.306883,18.5118968 207.739611,18.2119521 C208.399951,17.7607078 208.886935,16.7454083 208.886935,15.3067355 C208.886935,12.9443392 207.646978,11.5269014 205.630228,11.5269014 C205.062521,11.5269014 204.555687,11.5892793 204.366452,11.6397124 C204.271172,11.6795281 204.214269,11.7525235 204.214269,11.8666618 L204.214269,18.0420719 L204.214269,18.0420719 Z M202.708324,16.3963576 C202.708324,13.4566341 202.708324,12.9231041 202.671271,12.3192332 C202.632894,11.6795281 202.483358,11.3742747 201.861395,11.2468645 C201.711859,11.2057217 201.388967,11.1897954 201.219582,11.1897954 C201.145475,11.1897954 201.070046,11.1486525 201.070046,11.07433 C201.070046,10.9615189 201.164002,10.9243576 201.370441,10.9243576 C202.21737,10.9243576 203.40704,10.9827539 203.499673,10.9827539 C203.706112,10.9827539 205.139274,10.9243576 205.721538,10.9243576 C206.911208,10.9243576 208.173662,11.0371687 209.170127,11.7525235 C209.641231,12.0949382 210.47228,13.0186618 210.47228,14.3219613 C210.47228,15.7181641 209.887369,17.1143668 208.192188,18.6870857 C209.733864,20.6672516 211.01749,22.3461456 212.110558,23.5127447 C213.126872,24.5930765 213.936748,24.800118 214.406529,24.8810765 C214.766474,24.9341641 215.031139,24.9341641 215.143622,24.9341641 C215.237578,24.9341641 215.314331,24.9912332 215.314331,25.0443207 C215.314331,25.1597862 215.200525,25.1982747 214.861753,25.1982747 L213.522547,25.1982747 C212.466533,25.1982747 211.998075,25.1040442 211.507121,24.8386065 C210.697245,24.4059429 210.039552,23.4808922 208.962364,22.0647816 C208.173662,21.0269198 207.28571,19.7621088 206.911208,19.2710488 C206.833132,19.1900903 206.776229,19.1569106 206.66507,19.1569106 L204.347925,19.1157677 C204.253969,19.1157677 204.214269,19.1768184 204.214269,19.2710488 L204.214269,19.7222931 C204.214269,21.5325788 204.214269,23.023012 204.310872,23.8206525 C204.366452,24.3648 204.480258,24.7855189 205.045318,24.8571871 C205.309984,24.89833 205.721538,24.9341641 205.892247,24.9341641 C206.00473,24.9341641 206.045753,24.9912332 206.045753,25.0443207 C206.045753,25.1385512 205.94915,25.1982747 205.742711,25.1982747 C204.706547,25.1982747 203.5182,25.1385512 203.424243,25.1385512 C203.40704,25.1385512 202.21737,25.1982747 201.654956,25.1982747 C201.445871,25.1982747 201.351914,25.1597862 201.351914,25.0443207 C201.351914,24.9912332 201.388967,24.9341641 201.504097,24.9341641 C201.673483,24.9341641 201.898448,24.89833 202.069157,24.8571871 C202.446305,24.7855189 202.540261,24.3648 202.615691,23.8206525 C202.708324,23.023012 202.708324,21.5325788 202.708324,19.7222931 L202.708324,16.3963576 Z M179.665242,18.4402286 C179.665242,20.4429567 179.685092,22.1789198 179.700972,22.538588 C179.719498,23.0084129 179.759198,23.7622562 179.908734,23.9692977 C180.157519,24.3276387 180.891965,24.7284498 183.116477,24.7284498 C184.865914,24.7284498 186.486989,24.0834359 187.595937,22.9685972 C188.576522,22.0024037 189.107175,20.1960995 189.107175,18.4588092 C189.107175,16.0592516 188.068364,14.5157309 187.295542,13.7021641 C185.523608,11.8295005 183.375849,11.5693714 181.135457,11.5693714 C180.758309,11.5693714 180.06224,11.6184774 179.908734,11.7007631 C179.741995,11.7750857 179.685092,11.8666618 179.685092,12.0737032 C179.665242,12.7173899 179.665242,14.649777 179.665242,16.0977401 L179.665242,18.4402286 L179.665242,18.4402286 Z M178.082544,16.3963576 C178.082544,13.4566341 178.082544,12.9231041 178.04549,12.3192332 C178.004467,11.6795281 177.856255,11.3742747 177.234291,11.2468645 C177.086079,11.2057217 176.765834,11.1897954 176.593801,11.1897954 C176.519695,11.1897954 176.444265,11.1486525 176.444265,11.07433 C176.444265,10.9615189 176.536898,10.9243576 176.745984,10.9243576 C177.591589,10.9243576 178.779937,10.9827539 178.875216,10.9827539 C179.101505,10.9827539 180.285882,10.9243576 181.418649,10.9243576 C183.281893,10.9243576 186.730481,10.7558046 188.970873,13.0757309 C189.915728,14.0538691 190.801033,15.6239336 190.801033,17.8735189 C190.801033,20.2491871 189.820448,22.0846894 188.764434,23.1982009 C187.955882,24.0462747 186.262024,25.3655005 183.056927,25.3655005 C181.435853,25.3655005 179.063128,25.1385512 178.875216,25.1385512 C178.779937,25.1385512 177.591589,25.1982747 177.029176,25.1982747 C176.82009,25.1982747 176.726134,25.1597862 176.726134,25.0443207 C176.726134,24.9912332 176.765834,24.9341641 176.876993,24.9341641 C177.046379,24.9341641 177.273991,24.89833 177.442054,24.8571871 C177.819202,24.7855189 177.915804,24.3648 177.989911,23.8206525 C178.082544,23.023012 178.082544,21.5325788 178.082544,19.7222931 L178.082544,16.3963576 Z M153.219888,22.6314912 L152.976396,13.5853714 C153.577186,14.2702009 155.706418,16.6418876 157.893876,19.0056111 C159.889453,21.1622931 162.603595,23.9347908 162.808711,24.1219244 C163.807822,25.1173161 164.034111,25.3323207 164.18497,25.3323207 C164.315979,25.3323207 164.355679,25.2314544 164.355679,23.9865512 L164.394056,12.9231041 C164.394056,11.7963207 164.469485,11.3742747 165.091449,11.2468645 C165.316414,11.1897954 165.448747,11.1897954 165.542703,11.1897954 C165.675035,11.1897954 165.749142,11.1340535 165.749142,11.0570765 C165.749142,10.9429382 165.616809,10.9243576 165.41037,10.9243576 C164.637548,10.9243576 164.014261,10.9827539 163.807822,10.9827539 C163.601383,10.9827539 162.696228,10.9243576 161.849299,10.9243576 C161.624333,10.9243576 161.472151,10.9429382 161.472151,11.0570765 C161.472151,11.1340535 161.490678,11.1897954 161.624333,11.1897954 C161.773869,11.1897954 162.206597,11.2057217 162.546692,11.2813714 C163.130279,11.432671 163.262612,11.8480811 163.279815,13.0757309 L163.486254,22.6699797 C162.882817,22.0422194 160.831661,19.7448553 158.965771,17.7408 C156.063716,14.6272147 153.256941,11.5892793 152.976396,11.2614636 C152.785837,11.07433 152.466915,10.6549382 152.314732,10.6549382 C152.16652,10.6549382 152.108294,10.8699429 152.108294,11.601224 L152.089767,22.4231226 C152.089767,24.1391779 151.997134,24.6873069 151.52206,24.8200258 C151.242838,24.9116018 150.902743,24.9341641 150.750561,24.9341641 C150.657928,24.9341641 150.602348,24.9713253 150.602348,25.0443207 C150.602348,25.1823484 150.716154,25.1982747 150.902743,25.1982747 C151.750995,25.1982747 152.541021,25.1385512 152.710407,25.1385512 C152.881116,25.1385512 153.636736,25.1982747 154.70863,25.1982747 C154.934919,25.1982747 155.048725,25.1597862 155.048725,25.0443207 C155.048725,24.9713253 154.991822,24.9341641 154.895219,24.9341641 C154.72848,24.9341641 154.312955,24.9116018 153.954334,24.8200258 C153.44353,24.674035 153.256941,24.1803207 153.219888,22.6314912 L153.219888,22.6314912 Z M136.663752,18.9511963 C136.756384,18.9511963 136.756384,18.8914728 136.737858,18.8171502 L134.947397,13.7167631 C134.854764,13.4380535 134.760808,13.4380535 134.666852,13.7167631 L133.007401,18.8171502 C132.970348,18.9127078 133.007401,18.9511963 133.062981,18.9511963 L136.663752,18.9511963 L136.663752,18.9511963 Z M134.701259,11.3941825 C134.928871,10.7690765 135.005624,10.6549382 135.11943,10.6549382 C135.230589,10.6549382 135.306019,10.7558046 135.533631,11.3437493 C135.812853,12.0591041 138.773134,19.855012 139.921781,22.7243945 C140.600647,24.4059429 141.147181,24.7045604 141.544179,24.8200258 C141.824724,24.9116018 142.106593,24.9341641 142.294505,24.9341641 C142.408311,24.9341641 142.485064,24.9514175 142.485064,25.0443207 C142.485064,25.1597862 142.314355,25.1982747 142.106593,25.1982747 C141.824724,25.1982747 140.449788,25.1982747 139.150282,25.1597862 C138.792984,25.1385512 138.583898,25.1385512 138.583898,25.0244129 C138.583898,24.9514175 138.640801,24.9116018 138.716231,24.89833 C138.830037,24.8571871 138.94252,24.6873069 138.830037,24.386035 L137.077953,19.7448553 C137.0409,19.6625696 137.002523,19.6320442 136.907244,19.6320442 L132.856542,19.6320442 C132.762585,19.6320442 132.704359,19.6838046 132.669953,19.7767078 L131.539832,23.121224 C131.369123,23.5950304 131.275167,24.0462747 131.275167,24.386035 C131.275167,24.7656111 131.669518,24.9341641 131.991086,24.9341641 L132.178999,24.9341641 C132.311331,24.9341641 132.369557,24.9713253 132.369557,25.0443207 C132.369557,25.1597862 132.254428,25.1982747 132.086366,25.1982747 C131.633788,25.1982747 130.822589,25.1385512 130.614827,25.1385512 C130.407064,25.1385512 129.372223,25.1982747 128.485595,25.1982747 C128.244749,25.1982747 128.128296,25.1597862 128.128296,25.0443207 C128.128296,24.9713253 128.203726,24.9341641 128.299006,24.9341641 C128.428692,24.9341641 128.696004,24.9116018 128.844216,24.89833 C129.713641,24.7855189 130.08682,24.0675097 130.429561,23.121224 L134.701259,11.3941825 Z M114.151323,17.909353 L110.739788,23.3123392 C110.120471,24.273224 109.740677,24.6873069 109.175616,24.8386065 C108.893748,24.9116018 108.610556,24.9341641 108.46102,24.9341641 C108.365741,24.9341641 108.310161,24.9912332 108.310161,25.0642286 C108.310161,25.1385512 108.347214,25.1982747 108.498073,25.1982747 C109.118713,25.1982747 110.042395,25.1385512 110.211781,25.1385512 C110.38249,25.1385512 111.569514,25.1982747 112.022091,25.1982747 C112.154424,25.1982747 112.247057,25.1597862 112.247057,25.0642286 C112.247057,24.9912332 112.191477,24.9341641 112.096198,24.9341641 C112.000918,24.9341641 111.851382,24.9116018 111.738899,24.89833 C111.569514,24.8571871 111.437181,24.7284498 111.437181,24.5399889 C111.437181,24.3475465 111.512611,24.006459 111.681996,23.7078415 L114.621104,18.6990304 C115.751225,20.6088553 116.842969,22.4775373 117.863254,24.3276387 C118.029993,24.631565 117.863254,24.8200258 117.767974,24.8571871 C117.691221,24.8810765 117.654168,24.9341641 117.654168,25.0151226 C117.654168,25.1040442 117.749448,25.1173161 118.239079,25.1597862 C119.19849,25.1823484 120.102322,25.1982747 121.253616,25.1982747 C121.423002,25.1982747 121.514311,25.1385512 121.514311,25.0443207 C121.514311,24.9713253 121.460055,24.9341641 121.364775,24.9341641 C121.253616,24.9341641 120.969101,24.89833 120.707082,24.8200258 C120.159225,24.6528 119.895883,24.3648 119.594165,23.9692977 C119.19849,23.4623115 115.977514,17.9664221 115.620216,17.3798046 L118.65328,12.8116203 C119.19849,12.0007078 119.558435,11.4565604 120.102322,11.2813714 C120.311408,11.2057217 120.591953,11.1897954 120.724285,11.1897954 C120.855295,11.1897954 120.933371,11.1340535 120.933371,11.0570765 C120.933371,10.9827539 120.838092,10.9243576 120.629006,10.9243576 C119.989839,10.9243576 119.21834,10.9827539 119.050278,10.9827539 C118.879569,10.9827539 118.086896,10.9243576 117.369653,10.9243576 C117.144688,10.9243576 117.052055,10.9827539 117.052055,11.0570765 C117.052055,11.1486525 117.108958,11.1897954 117.220117,11.1897954 C117.335247,11.1897954 117.598589,11.1897954 117.785178,11.2468645 C117.97309,11.2999521 118.104099,11.4565604 118.104099,11.5892793 C118.104099,11.8135742 118.049843,11.9808 117.91751,12.2648184 C117.728275,12.6603207 115.712849,15.8893714 115.147788,16.7042654 C114.168527,15.0824406 113.395704,13.6822562 112.604355,12.1865143 C112.493195,11.9808 112.416443,11.7525235 112.416443,11.5693714 C112.416443,11.432671 112.473346,11.2999521 112.641408,11.2468645 C112.793591,11.1897954 113.037083,11.1897954 113.152212,11.1897954 C113.266018,11.1897954 113.321598,11.1486525 113.321598,11.0570765 C113.321598,10.9615189 113.266018,10.9243576 113.000029,10.9243576 C112.360863,10.9243576 111.398805,10.9827539 111.230742,10.9827539 C111.079883,10.9827539 109.552764,10.9243576 109.024757,10.9243576 C108.781265,10.9243576 108.704512,10.9615189 108.704512,11.0570765 C108.704512,11.1340535 108.762738,11.1897954 108.873898,11.1897954 C108.987704,11.1897954 109.364852,11.2282839 109.66657,11.3198599 C110.30706,11.5494636 110.704058,12.0949382 111.135463,12.8315281 L114.151323,17.909353 L114.151323,17.909353 Z M92.075593,16.3963576 L92.075593,19.7222931 C92.075593,21.5325788 92.075593,23.023012 91.9803135,23.8206525 C91.9075305,24.3648 91.812251,24.7855189 91.435103,24.8571871 C91.2643939,24.89833 91.0407517,24.9341641 90.8687193,24.9341641 C90.7562366,24.9341641 90.7178601,24.9912332 90.7178601,25.0443207 C90.7178601,25.1597862 90.8144629,25.1982747 91.0222252,25.1982747 C91.5859622,25.1982747 92.7729859,25.1385512 92.8682654,25.1385512 C93.4134759,25.1385512 94.6746059,25.2513622 97.5197576,25.2513622 C98.2528804,25.2513622 98.4063863,25.2513622 98.5373956,24.7656111 C98.6313518,24.3648 98.782211,23.0827355 98.782211,22.9301088 C98.782211,22.7987171 98.782211,22.6513991 98.6670816,22.6513991 C98.5731254,22.6513991 98.5373956,22.7243945 98.4990191,22.9301088 C98.3680098,23.7078415 98.141721,24.0834359 97.6534136,24.2931318 C97.1624595,24.4975189 96.3327339,24.4975189 95.8431031,24.4975189 C93.9970628,24.4975189 93.7125477,24.2519889 93.6582913,22.9500166 C93.6384414,22.5558415 93.6582913,20.3619982 93.6582913,19.7222931 L93.6582913,18.0606525 C93.6582913,17.9876571 93.6953444,17.9279336 93.7893006,17.9279336 C94.1095456,17.9279336 95.9741124,17.9664221 96.4835931,18.0221641 C97.2193625,18.099141 97.387425,18.4189935 97.4655012,18.6870857 C97.5382842,18.9299613 97.5382842,19.1157677 97.5382842,19.3055558 C97.5382842,19.4050949 97.5766607,19.4807447 97.6719402,19.4807447 C97.8016261,19.4807447 97.8016261,19.2710488 97.8016261,19.1157677 C97.8016261,18.9870304 97.8413259,18.2849475 97.8810257,17.909353 C97.9352821,17.2869014 98.0279149,16.968376 98.0279149,16.855565 C98.0279149,16.7454083 97.9908618,16.7042654 97.9352821,16.7042654 C97.8598525,16.7042654 97.7830996,16.7945143 97.6534136,16.947141 C97.4813812,17.1382562 97.2193625,17.1754175 96.7667849,17.2085972 C96.3327339,17.2484129 94.0155894,17.2484129 93.7734207,17.2484129 C93.6781412,17.2484129 93.6582913,17.1886894 93.6582913,17.0626065 L93.6582913,11.8480811 C93.6582913,11.7153622 93.6953444,11.6609475 93.7734207,11.6609475 C93.9798596,11.6609475 96.0323388,11.6795281 96.3525838,11.7153622 C97.3702217,11.8295005 97.5594574,12.0591041 97.6917901,12.3590488 C97.7830996,12.584671 97.8016261,12.9045235 97.8016261,13.0398968 C97.8016261,13.1898691 97.8413259,13.2827724 97.9538087,13.2827724 C98.0279149,13.2827724 98.0676147,13.1726157 98.0861413,13.0757309 C98.1218711,12.8501088 98.1589243,12.0206157 98.1800975,11.8295005 C98.2370005,11.2999521 98.3296334,11.07433 98.3296334,10.9429382 C98.3296334,10.850035 98.3124301,10.7690765 98.2528804,10.7690765 C98.1589243,10.7690765 98.0861413,10.850035 97.9908618,10.8699429 C97.8413259,10.9031226 97.5382842,10.9429382 97.1823094,10.9615189 C96.746935,10.9827539 92.9992748,10.9827539 92.8682654,10.9827539 C92.7729859,10.9827539 91.5859622,10.9243576 90.73771,10.9243576 C90.5299478,10.9243576 90.4346683,10.9615189 90.4346683,11.07433 C90.4346683,11.1486525 90.5114212,11.1897954 90.5881741,11.1897954 C90.7562366,11.1897954 91.0778049,11.2057217 91.2260174,11.2468645 C91.8493041,11.3742747 92.0001633,11.6795281 92.0372165,12.3192332 C92.075593,12.9231041 92.075593,13.4566341 92.075593,16.3963576 L92.075593,16.3963576 Z M74.9742463,19.7621088 L74.9742463,16.3963576 C74.9742463,13.4566341 74.9742463,12.9231041 75.0112994,12.3192332 C75.0496759,11.6609475 75.2005351,11.3437493 75.7470689,11.2468645 C75.9733577,11.2057217 76.238023,11.1897954 76.3690323,11.1897954 C76.4431386,11.1897954 76.5185682,11.1486525 76.5185682,11.07433 C76.5185682,10.9615189 76.4232887,10.9243576 76.2181731,10.9243576 C75.6544361,10.9243576 74.2781766,10.9827539 74.1828971,10.9827539 C74.088941,10.9827539 72.9019172,10.9243576 72.0549883,10.9243576 C71.8472261,10.9243576 71.7519466,10.9615189 71.7519466,11.07433 C71.7519466,11.1486525 71.8286995,11.1897954 71.9041291,11.1897954 C72.0721916,11.1897954 72.3937599,11.2057217 72.5432958,11.2468645 C73.1652592,11.3742747 73.3174417,11.6795281 73.3531715,12.3192332 C73.391548,12.9231041 73.391548,13.4566341 73.391548,16.3963576 L73.391548,19.7222931 C73.391548,21.5325788 73.391548,23.023012 73.2989151,23.8206525 C73.2221622,24.3648 73.1268827,24.7855189 72.7523813,24.8571871 C72.5816722,24.89833 72.3553834,24.9341641 72.1859977,24.9341641 C72.0721916,24.9341641 72.0351385,24.9912332 72.0351385,25.0443207 C72.0351385,25.1597862 72.1290946,25.1982747 72.3368569,25.1982747 C72.9019172,25.1982747 74.0135114,25.1385512 74.1828971,25.1385512 C75.277288,25.1385512 76.5185682,25.2513622 79.2313872,25.2513622 C80.231822,25.2513622 80.2874017,25.1823484 80.418411,24.7457032 C80.5705935,24.1922654 80.7016028,23.0641548 80.7016028,22.8597677 C80.7016028,22.6513991 80.6843996,22.5704406 80.5891201,22.5704406 C80.475314,22.5704406 80.4395842,22.6699797 80.418411,22.8159705 C80.3628313,23.1756387 80.1735956,23.648118 79.9287802,23.9546986 C79.4775259,24.4975189 78.646477,24.5200811 77.6500122,24.5200811 C76.1797966,24.5200811 75.6888425,24.386035 75.3897708,24.0834359 C75.0496759,23.7423484 74.9742463,22.538588 74.9742463,19.7621088 L74.9742463,19.7621088 Z M57.3422458,18.9511963 C57.436202,18.9511963 57.436202,18.8914728 57.4176754,18.8171502 L55.6298615,13.7167631 C55.534582,13.4380535 55.4406258,13.4380535 55.3453463,13.7167631 L53.6885417,18.8171502 C53.6501652,18.9127078 53.6885417,18.9511963 53.7454447,18.9511963 L57.3422458,18.9511963 L57.3422458,18.9511963 Z M55.3823994,11.3941825 C55.6100116,10.7690765 55.6854412,10.6549382 55.7979239,10.6549382 C55.91173,10.6549382 55.9858363,10.7558046 56.2134484,11.3437493 C56.4953169,12.0591041 59.455598,19.855012 60.6002753,22.7243945 C61.2817884,24.4059429 61.8269989,24.7045604 62.2239968,24.8200258 C62.5032186,24.9116018 62.7877338,24.9341641 62.9756461,24.9341641 C63.0881289,24.9341641 63.1648818,24.9514175 63.1648818,25.0443207 C63.1648818,25.1597862 62.9941727,25.1982747 62.7877338,25.1982747 C62.5032186,25.1982747 61.1296059,25.1982747 59.828776,25.1597862 C59.4701546,25.1385512 59.2637157,25.1385512 59.2637157,25.0244129 C59.2637157,24.9514175 59.321942,24.9116018 59.398695,24.89833 C59.5072077,24.8571871 59.6236605,24.6873069 59.5072077,24.386035 L57.756447,19.7448553 C57.7193938,19.6625696 57.6810173,19.6320442 57.5883845,19.6320442 L53.5363592,19.6320442 C53.4410797,19.6320442 53.3868233,19.6838046 53.3497701,19.7767078 L52.2196494,23.121224 C52.0489403,23.5950304 51.9536608,24.0462747 51.9536608,24.386035 C51.9536608,24.7656111 52.3493354,24.9341641 52.6695804,24.9341641 L52.8574927,24.9341641 C52.9911487,24.9341641 53.0467284,24.9713253 53.0467284,25.0443207 C53.0467284,25.1597862 52.9368923,25.1982747 52.7648599,25.1982747 C52.3136056,25.1982747 51.5037299,25.1385512 51.2946443,25.1385512 C51.0895287,25.1385512 50.0507175,25.1982747 49.1680588,25.1982747 C48.9219201,25.1982747 48.8081141,25.1597862 48.8081141,25.0443207 C48.8081141,24.9713253 48.8835437,24.9341641 48.9788232,24.9341641 C49.1098325,24.9341641 49.3744977,24.9116018 49.5240336,24.89833 C50.3908124,24.7855189 50.7679604,24.0675097 51.106732,23.121224 L55.3823994,11.3941825 Z" id="Combined-Shape"></path>
        </g>
    </g>
</svg>