<?xml version="1.0" encoding="UTF-8" standalone="no"?>
<svg
   xmlns:dc="http://purl.org/dc/elements/1.1/"
   xmlns:cc="http://creativecommons.org/ns#"
   xmlns:rdf="http://www.w3.org/1999/02/22-rdf-syntax-ns#"
   xmlns:svg="http://www.w3.org/2000/svg"
   xmlns="http://www.w3.org/2000/svg"
   xmlns:sodipodi="http://sodipodi.sourceforge.net/DTD/sodipodi-0.dtd"
   xmlns:inkscape="http://www.inkscape.org/namespaces/inkscape"
   version="1.1"
   id="svg2"
   xml:space="preserve"
   width="1056"
   height="816"
   viewBox="0 0 1056 816"
   sodipodi:docname="advent_LT_fc.ai"><metadata
     id="metadata8"><rdf:RDF><cc:Work
         rdf:about=""><dc:format>image/svg+xml</dc:format><dc:type
           rdf:resource="http://purl.org/dc/dcmitype/StillImage" /></cc:Work></rdf:RDF></metadata><defs
     id="defs6"><clipPath
       clipPathUnits="userSpaceOnUse"
       id="clipPath18"><path
         d="M 0,612 H 792 V 0 H 0 Z"
         id="path16" /></clipPath></defs><sodipodi:namedview
     pagecolor="#ffffff"
     bordercolor="#666666"
     borderopacity="1"
     objecttolerance="10"
     gridtolerance="10"
     guidetolerance="10"
     inkscape:pageopacity="0"
     inkscape:pageshadow="2"
     inkscape:window-width="640"
     inkscape:window-height="480"
     id="namedview4" /><g
     id="g10"
     inkscape:groupmode="layer"
     inkscape:label="advent_LT_fc"
     transform="matrix(1.3333333,0,0,-1.3333333,0,816)"><g
       id="g12"><g
         id="g14"
         clip-path="url(#clipPath18)"><g
           id="g20"
           transform="translate(102.3726,357.0527)"><path
             d="m 0,0 c -13.208,-13.208 -21.356,-31.414 -21.356,-51.569 0,-20.158 8.148,-38.361 21.356,-51.577 13.204,-13.195 31.415,-21.355 51.569,-21.355 20.158,0 38.357,8.16 51.567,21.355 13.212,13.216 21.361,31.419 21.372,51.577 C 124.497,-31.414 116.348,-13.208 103.136,0 89.926,13.2 71.727,21.363 51.569,21.363 31.415,21.363 13.204,13.2 0,0 m -30.906,-51.569 c 0,45.549 36.916,82.471 82.475,82.471 45.55,0 82.465,-36.922 82.465,-82.471 0,-45.544 -36.915,-82.466 -82.465,-82.469 -45.559,0.003 -82.475,36.925 -82.475,82.469"
             style="fill:#94d83d;fill-opacity:1;fill-rule:nonzero;stroke:none"
             id="path22" /></g><g
           id="g24"
           transform="translate(170.5449,278.5098)"><path
             d="M 0,0 -16.824,39.812 -33.557,0 h -11.335 l 27.597,60.635 h 1.3 L 11.672,0 Z m -16.608,86.085 c -32.644,0 -59.115,-26.465 -59.115,-59.111 0,-32.652 26.471,-59.112 59.115,-59.112 32.658,0 59.111,26.46 59.111,59.112 0,32.646 -26.453,59.111 -59.111,59.111"
             style="fill:#94d83d;fill-opacity:1;fill-rule:nonzero;stroke:none"
             id="path26" /></g><g
           id="g28"
           transform="translate(402.1416,310.6006)"><path
             d="m 0,0 c 0,3.128 -0.496,5.985 -1.482,8.564 -0.991,2.58 -2.471,4.792 -4.449,6.633 -1.975,1.841 -4.422,3.272 -7.334,4.288 -2.913,1.015 -6.29,1.521 -10.133,1.521 -3.023,0 -5.603,-0.164 -7.744,-0.491 v -42.104 c 1.262,-0.221 2.522,-0.354 3.789,-0.409 1.261,-0.055 2.882,-0.087 4.86,-0.087 3.898,0 7.253,0.553 10.055,1.654 2.798,1.097 5.132,2.634 7.004,4.609 1.863,1.981 3.237,4.316 4.118,7.005 C -0.443,-6.126 0,-3.188 0,0 m 11.04,0 c 0,-4.231 -0.714,-8.239 -2.141,-12.027 -1.427,-3.795 -3.586,-7.104 -6.468,-9.931 -2.887,-2.828 -6.523,-5.08 -10.916,-6.755 -4.397,-1.674 -9.588,-2.516 -15.575,-2.516 -1.644,0 -3.2,0.029 -4.653,0.083 -1.455,0.055 -2.87,0.126 -4.244,0.204 -1.371,0.087 -2.746,0.183 -4.119,0.288 -1.373,0.114 -2.826,0.248 -4.368,0.414 v 59.322 c 2.967,0.333 5.757,0.581 8.365,0.744 2.608,0.164 5.424,0.246 8.445,0.246 5.984,0 11.206,-0.797 15.655,-2.389 4.448,-1.595 8.156,-3.765 11.12,-6.513 C 5.11,18.427 7.332,15.227 8.815,11.576 10.299,7.92 11.04,4.065 11.04,0"
             style="fill:#000000;fill-opacity:1;fill-rule:nonzero;stroke:none"
             id="path30" /></g><g
           id="g32"
           transform="translate(468.1338,279.043)"><path
             d="m 0,0 h -1.316 l -27.932,61.22 h 11.784 L -0.491,21.014 16.397,61.22 H 27.85 Z"
             style="fill:#000000;fill-opacity:1;fill-rule:nonzero;stroke:none"
             id="path34" /></g><g
           id="g36"
           transform="translate(523.8301,279.8691)"><path
             d="M 0,0 V 60.394 H 36.828 V 50.999 H 10.301 V 35.179 H 34.276 V 26.121 H 10.301 V 9.391 H 36.828 V 0 Z"
             style="fill:#000000;fill-opacity:1;fill-rule:nonzero;stroke:none"
             id="path38" /></g><g
           id="g40"
           transform="translate(642.3037,278.7158)"><path
             d="M 0,0 -37.815,39.874 V 1.153 h -10.298 v 61.215 l 1.646,0.33 37.324,-39.303 V 61.547 H 1.156 V 0.245 Z"
             style="fill:#000000;fill-opacity:1;fill-rule:nonzero;stroke:none"
             id="path42" /></g><g
           id="g44"
           transform="translate(703.0273,330.8677)"><path
             d="M 0,0 V -50.999 H -10.298 V 0 h -19.2 V 9.396 H 19.116 V 0 Z"
             style="fill:#000000;fill-opacity:1;fill-rule:nonzero;stroke:none"
             id="path46" /></g><g
           id="g48"
           transform="translate(303.6104,341.0469)"><path
             d="M 0,0 H 1.318 L 29.253,-61.215 H 17.469 L 0.496,-21.009 -16.395,-61.215 h -11.452 z"
             style="fill:#000000;fill-opacity:1;fill-rule:nonzero;stroke:none"
             id="path50" /></g></g></g></g></svg>
